<svg width="11" height="8" viewBox="0 0 11 8" fill="none" xmlns="http://www.w3.org/2000/svg">
<path d="M10.1075 6.49211C10.1073 6.49216 10.1071 6.49224 10.1069 6.49228L6.89787 7.35065C6.65747 7.41495 6.41084 7.27066 6.34702 7.02829C6.28321 6.78595 6.42637 6.53736 6.66679 6.47304L8.82133 5.89676L0.561037 1.08953C0.345617 0.96416 0.271813 0.686516 0.396186 0.469372C0.520559 0.252228 0.795999 0.177833 1.01142 0.303201L9.27169 5.11042L8.68957 2.9415C8.62462 2.69947 8.76662 2.45019 9.00673 2.38473C9.24688 2.31923 9.49416 2.46243 9.55911 2.70441L10.4262 5.93495C10.4262 5.93513 10.4262 5.93533 10.4263 5.93552C10.491 6.17811 10.3475 6.42757 10.1075 6.49211Z" fill="white"/>
</svg>
