<svg width="27" height="30" viewBox="0 0 27 30" fill="none" xmlns="http://www.w3.org/2000/svg">
<path d="M25.1837 13.7094C24.6931 13.7094 24.2949 13.3088 24.2949 12.8152C24.2949 9.39105 22.9701 6.17318 20.5642 3.7517C20.217 3.40241 20.217 2.83612 20.5642 2.48682C20.9114 2.13753 21.4743 2.13753 21.8217 2.48682C24.5629 5.24559 26.0725 8.91426 26.0725 12.8152C26.0725 13.3088 25.6743 13.7094 25.1837 13.7094V13.7094Z" fill="#C4C4C4"/>
<path d="M0.888838 13.7093C0.398198 13.7093 0 13.3087 0 12.8151C0 8.91415 1.5099 5.24547 4.25214 2.4878C4.59935 2.13851 5.16247 2.13851 5.50967 2.4878C5.85687 2.83709 5.85687 3.4036 5.50967 3.7529C3.10269 6.17307 1.77768 9.39093 1.77768 12.8151C1.77768 13.3087 1.37948 13.7093 0.888838 13.7093Z" fill="#C4C4C4"/>
<path d="M13.0364 29.507C10.5855 29.507 8.59216 27.5016 8.59216 25.036C8.59216 24.5424 8.99036 24.1418 9.481 24.1418C9.97164 24.1418 10.3698 24.5424 10.3698 25.036C10.3698 26.5157 11.5655 27.7186 13.0364 27.7186C14.507 27.7186 15.7029 26.5157 15.7029 25.036C15.7029 24.5424 16.1011 24.1418 16.5917 24.1418C17.0823 24.1418 17.4805 24.5424 17.4805 25.036C17.4805 27.5016 15.4872 29.507 13.0364 29.507V29.507Z" fill="#C4C4C4"/>
<path d="M22.8136 25.9298H3.25916C2.11534 25.9298 1.18506 24.9939 1.18506 23.8435C1.18506 23.2329 1.44937 22.6548 1.91049 22.2577C3.71291 20.7256 4.74041 18.4986 4.74041 16.1391V12.815C4.74041 8.21301 8.46177 4.46924 13.0364 4.46924C17.6108 4.46924 21.3321 8.21301 21.3321 12.815V16.1391C21.3321 18.4986 22.3596 20.7256 24.1503 22.2494C24.6232 22.6548 24.8875 23.2329 24.8875 23.8435C24.8875 24.9939 23.9572 25.9298 22.8136 25.9298V25.9298ZM13.0364 6.25762C9.44175 6.25762 6.51809 9.19889 6.51809 12.815V16.1391C6.51809 19.0254 5.26078 21.751 3.0695 23.6145C3.02805 23.6503 2.96274 23.7243 2.96274 23.8435C2.96274 24.0054 3.09793 24.1415 3.25916 24.1415H22.8136C22.9746 24.1415 23.1098 24.0054 23.1098 23.8435C23.1098 23.7243 23.0447 23.6503 23.0054 23.6169C20.8118 21.751 19.5545 19.0254 19.5545 16.1391V12.815C19.5545 9.19889 16.6308 6.25762 13.0364 6.25762V6.25762Z" fill="#C4C4C4"/>
<path d="M13.0364 6.25773C12.5457 6.25773 12.1475 5.85713 12.1475 5.36354V1.78677C12.1475 1.29317 12.5457 0.892578 13.0364 0.892578C13.527 0.892578 13.9252 1.29317 13.9252 1.78677V5.36354C13.9252 5.85713 13.527 6.25773 13.0364 6.25773Z" fill="#C4C4C4"/>
</svg>
