<svg width="21" height="15" viewBox="0 0 21 15" fill="none" xmlns="http://www.w3.org/2000/svg">
<path d="M1.05941 14.125C1.19856 14.1252 1.33637 14.0979 1.46493 14.0446C1.59348 13.9914 1.71025 13.9132 1.80852 13.8147L7.76879 7.85443L10.1978 10.2835C10.2962 10.3819 10.413 10.4599 10.5415 10.5131C10.67 10.5664 10.8078 10.5938 10.9469 10.5938C11.086 10.5938 11.2238 10.5664 11.3523 10.5131C11.4809 10.4599 11.5977 10.3819 11.696 10.2835L18.3621 3.61737L18.3617 6.00312C18.3617 6.28409 18.4734 6.55354 18.672 6.75222C18.8707 6.95089 19.1402 7.0625 19.4211 7.0625C19.7021 7.0625 19.9715 6.95089 20.1702 6.75222C20.3689 6.55354 20.4805 6.28409 20.4805 6.00312L20.4813 1.05937C20.4813 0.778411 20.3697 0.508955 20.171 0.310284C19.9723 0.111612 19.7029 0 19.4219 0H14.4782C14.1972 0 13.9277 0.111612 13.7291 0.310284C13.5304 0.508955 13.4188 0.778411 13.4188 1.05937C13.4188 1.34034 13.5304 1.60979 13.7291 1.80847C13.9277 2.00714 14.1972 2.11875 14.4782 2.11875H16.8644L10.9469 8.0362L8.5179 5.60714C8.41953 5.50876 8.30274 5.43072 8.17421 5.37748C8.04567 5.32424 7.90791 5.29684 7.76879 5.29684C7.62967 5.29684 7.4919 5.32424 7.36337 5.37748C7.23484 5.43072 7.11805 5.50876 7.01968 5.60714L0.310303 12.3165C0.162139 12.4647 0.0612376 12.6534 0.0203582 12.8589C-0.0205212 13.0644 0.000457955 13.2775 0.0806427 13.471C0.160827 13.6646 0.296616 13.8301 0.470837 13.9465C0.645057 14.0629 0.849884 14.125 1.05941 14.125Z" fill="#34C710"/>
</svg>
