<svg width="46" height="23" viewBox="0 0 46 23" fill="none" xmlns="http://www.w3.org/2000/svg">
<path d="M1.92308 9.88166C1.58115 9.35802 1.40061 9.20625 1 9.20625V22.2434H45V2.84488C44.2354 2.14233 43.562 1.43124 42.7436 1.43124C42.2414 1.43124 41.7661 1.00715 41.2564 1.00715H39.6125C39.3647 1.00715 39.153 0.928955 38.9373 1.28987C38.7604 1.58594 38.5232 1.40295 38.3305 1.63543C37.9718 2.06803 37.5218 1.96346 37.1538 2.35796C36.2416 3.33584 35.2852 4.06273 34.3846 5.02816C33.1959 6.30248 31.9759 7.14754 30.7436 7.9968C29.518 8.8414 28.0905 8.76645 26.849 8.76645C25.7654 8.76645 24.6716 8.32115 23.5926 8.08319C22.1253 7.75961 20.7886 5.23261 19.2821 5.95488C18.6501 6.25787 18.0022 6.94443 17.3618 6.94443C17.0141 6.94443 16.3593 7.12283 16.0769 6.4418C15.7545 5.66408 15.3029 5.08748 15.0513 4.08574C14.8804 3.40526 14.3795 2.42748 14.0883 2.16947C13.249 1.42577 12.3221 2.23733 11.604 3.41033C10.889 4.57834 10.1171 5.56145 9.52422 7.19574C9.24561 7.96375 9.0044 8.74835 8.7208 9.48898C8.58887 9.8335 8.19577 10.7091 8.02564 10.7613C7.89458 10.8014 7.68051 11.2724 7.56695 11.4681C7.40019 11.7554 7.22553 11.9541 7.06268 12.2534C6.73087 12.8632 6.36911 13.3577 6.03704 13.9341C5.57772 14.7313 4.63528 14.9637 4.1396 14.154C3.98552 13.9023 3.78639 13.8393 3.64387 13.5178C3.52224 13.2435 3.39058 12.848 3.25641 12.6304C3.03302 12.2682 2.73128 11.3349 2.48718 11.1853C2.27487 11.0553 2.10721 10.1636 1.92308 9.88166Z" fill="url(#paint0_linear)"/>
<path d="M1 9.20625C1.40061 9.20625 1.58115 9.35802 1.92308 9.88166C2.10721 10.1636 2.27487 11.0553 2.48718 11.1853C2.73128 11.3349 3.03302 12.2682 3.25641 12.6304C3.39058 12.848 3.52224 13.2435 3.64387 13.5178C3.78639 13.8393 3.98552 13.9023 4.1396 14.154C4.63528 14.9637 5.57772 14.7313 6.03704 13.9341C6.36911 13.3577 6.73087 12.8632 7.06268 12.2534C7.22553 11.9541 7.40019 11.7554 7.56695 11.4681C7.68051 11.2724 7.89458 10.8014 8.02564 10.7613C8.19577 10.7091 8.58887 9.83351 8.7208 9.48898C9.0044 8.74835 9.24561 7.96375 9.52422 7.19574C10.1171 5.56145 10.889 4.57834 11.604 3.41033C12.3221 2.23733 13.249 1.42577 14.0883 2.16947C14.3795 2.42748 14.8804 3.40526 15.0513 4.08574C15.3029 5.08748 15.7545 5.66408 16.0769 6.4418C16.3593 7.12283 17.0141 6.94443 17.3618 6.94443C18.0022 6.94443 18.6501 6.25787 19.2821 5.95488C20.7886 5.23261 22.1253 7.75961 23.5926 8.08319C24.6716 8.32115 25.7654 8.76645 26.849 8.76645C28.0905 8.76645 29.518 8.8414 30.7436 7.9968C31.9759 7.14754 33.1959 6.30248 34.3846 5.02816C35.2852 4.06273 36.2417 3.33584 37.1538 2.35796C37.5218 1.96346 37.9718 2.06803 38.3305 1.63543C38.5232 1.40295 38.7604 1.58594 38.9373 1.28987C39.153 0.928955 39.3647 1.00715 39.6125 1.00715C40.1605 1.00715 40.7085 1.00715 41.2564 1.00715C41.7661 1.00715 42.2414 1.43124 42.7436 1.43124C43.562 1.43124 44.2354 2.14233 45 2.84488" stroke="#04C100" stroke-linecap="round" stroke-linejoin="round"/>
<defs>
<linearGradient id="paint0_linear" x1="23" y1="1" x2="23" y2="22.2434" gradientUnits="userSpaceOnUse">
<stop stop-color="#04C100" stop-opacity="0.35"/>
<stop offset="1" stop-color="#C4C4C4" stop-opacity="0"/>
</linearGradient>
</defs>
</svg>
