<svg width="46" height="46" viewBox="0 0 46 46" fill="none" xmlns="http://www.w3.org/2000/svg">
<path d="M23 0C10.3093 0 0 10.3093 0 23C0 35.6907 10.3093 46 23 46C35.6907 46 46 35.6907 46 23C46 10.3093 35.6907 0 23 0ZM23 2C34.6098 2 44 11.3902 44 23C44 34.6098 34.6098 44 23 44C11.3902 44 2 34.6098 2 23C2 11.3902 11.3902 2 23 2ZM23 9C22.2044 9 21.4413 9.31607 20.8787 9.87868C20.3161 10.4413 20 11.2044 20 12C20 12.7956 20.3161 13.5587 20.8787 14.1213C21.4413 14.6839 22.2044 15 23 15C23.7956 15 24.5587 14.6839 25.1213 14.1213C25.6839 13.5587 26 12.7956 26 12C26 11.2044 25.6839 10.4413 25.1213 9.87868C24.5587 9.31607 23.7956 9 23 9V9ZM19 19V21H20H21V34H20H19V36H20H21H25H26H27V34H26H25V19H24H20H19Z" fill="white"/>
</svg>
