<svg width="15" height="15" viewBox="0 0 15 15" fill="none" xmlns="http://www.w3.org/2000/svg">
<path d="M7.5 0C3.36448 0 0 3.36448 0 7.5C0 11.6355 3.36448 15 7.5 15C11.6355 15 15 11.6355 15 7.5C15 3.36448 11.6355 0 7.5 0ZM7.5 12.4585C4.7659 12.4585 2.54153 10.2341 2.54153 7.5C2.54153 4.7659 4.7659 2.54153 7.5 2.54153C10.2341 2.54153 12.4585 4.7659 12.4585 7.5C12.4585 10.2341 10.2341 12.4585 7.5 12.4585Z" fill="black"/>
<path d="M7.49997 3.42041C5.2505 3.42041 3.42041 5.2505 3.42041 7.49997C3.42041 9.74944 5.2505 11.5795 7.49997 11.5795C9.74944 11.5795 11.5795 9.74944 11.5795 7.49997C11.5795 5.2505 9.74944 3.42041 7.49997 3.42041ZM7.49997 9.8898C6.1822 9.8898 5.11017 8.81774 5.11017 7.49997C5.11017 6.1822 6.1822 5.11014 7.49997 5.11014C8.81774 5.11014 9.88977 6.1822 9.88977 7.49997C9.88977 8.81774 8.81771 9.8898 7.49997 9.8898Z" fill="black"/>
<path d="M7.50004 9.01087C6.66689 9.01087 5.98914 8.33308 5.98914 7.49994C5.98914 6.6668 6.66692 5.98901 7.50004 5.98901C8.33315 5.98901 9.01093 6.6668 9.01093 7.49994C9.01093 8.33308 8.33318 9.01087 7.50004 9.01087Z" fill="black"/>
</svg>
