<svg width="192" height="51" viewBox="0 0 192 51" fill="none" xmlns="http://www.w3.org/2000/svg">
<path d="M24.8417 50.3872L13.6054 30.9813H6.15965V50.3872H0V2.9279H15.2299C18.7948 2.9279 21.7957 3.54072 24.2325 4.76635C26.7144 5.99199 28.5645 7.64886 29.7829 9.73698C31.0013 11.8251 31.6105 14.2083 31.6105 16.8865C31.6105 20.1549 30.6629 23.0374 28.7676 25.534C26.9174 28.0307 24.1196 29.6876 20.3742 30.5047L32.2197 50.3872H24.8417ZM6.15965 26.0107H15.2299C18.5692 26.0107 21.0737 25.1936 22.7433 23.5594C24.413 21.8798 25.2478 19.6555 25.2478 16.8865C25.2478 14.0721 24.413 11.8932 22.7433 10.3498C21.1188 8.80641 18.6143 8.03471 15.2299 8.03471H6.15965V26.0107Z" fill="black"/>
<path d="M38.8801 31.5941C38.8801 27.781 39.6473 24.4446 41.1815 21.5848C42.7158 18.6796 44.8141 16.4326 47.4765 14.8438C50.1841 13.255 53.1849 12.4606 56.4791 12.4606C59.7282 12.4606 62.5485 13.1642 64.9402 14.5714C67.3318 15.9786 69.1143 17.749 70.2876 19.8825V13.0734H76.5149V50.3872H70.2876V43.4419C69.0692 45.6208 67.2416 47.4366 64.8048 48.8892C62.4131 50.2964 59.6153 51 56.4114 51C53.1173 51 50.139 50.1829 47.4765 48.5487C44.8141 46.9145 42.7158 44.6222 41.1815 41.6716C39.6473 38.721 38.8801 35.3618 38.8801 31.5941ZM70.2876 31.6622C70.2876 28.8478 69.7235 26.3965 68.5953 24.3084C67.4672 22.2203 65.9329 20.6315 63.9925 19.5421C62.0972 18.4072 59.9989 17.8398 57.6975 17.8398C55.3961 17.8398 53.2978 18.3845 51.4025 19.474C49.5072 20.5634 47.9955 22.1522 46.8674 24.2403C45.7392 26.3284 45.1751 28.7797 45.1751 31.5941C45.1751 34.4539 45.7392 36.9506 46.8674 39.0841C47.9955 41.1722 49.5072 42.7837 51.4025 43.9186C53.2978 45.008 55.3961 45.5527 57.6975 45.5527C59.9989 45.5527 62.0972 45.008 63.9925 43.9186C65.9329 42.7837 67.4672 41.1722 68.5953 39.0841C69.7235 36.9506 70.2876 34.4766 70.2876 31.6622Z" fill="black"/>
<path d="M84.6227 31.5941C84.6227 27.781 85.3898 24.4446 86.9241 21.5848C88.4584 18.6796 90.5567 16.4326 93.2191 14.8438C95.9266 13.255 98.9501 12.4606 102.289 12.4606C105.177 12.4606 107.862 13.1415 110.344 14.5033C112.826 15.8198 114.721 17.5674 116.03 19.7463V0H122.257V50.3872H116.03V43.3738C114.812 45.5981 113.007 47.4366 110.615 48.8892C108.223 50.2964 105.426 51 102.222 51C98.9275 51 95.9266 50.1829 93.2191 48.5487C90.5567 46.9145 88.4584 44.6222 86.9241 41.6716C85.3898 38.721 84.6227 35.3618 84.6227 31.5941ZM116.03 31.6622C116.03 28.8478 115.466 26.3965 114.338 24.3084C113.21 22.2203 111.675 20.6315 109.735 19.5421C107.84 18.4072 105.741 17.8398 103.44 17.8398C101.139 17.8398 99.0403 18.3845 97.145 19.474C95.2498 20.5634 93.7381 22.1522 92.6099 24.2403C91.4818 26.3284 90.9177 28.7797 90.9177 31.5941C90.9177 34.4539 91.4818 36.9506 92.6099 39.0841C93.7381 41.1722 95.2498 42.7837 97.145 43.9186C99.0403 45.008 101.139 45.5527 103.44 45.5527C105.741 45.5527 107.84 45.008 109.735 43.9186C111.675 42.7837 113.21 41.1722 114.338 39.0841C115.466 36.9506 116.03 34.4766 116.03 31.6622Z" fill="black"/>
<path d="M130.365 31.5941C130.365 27.781 131.132 24.4446 132.667 21.5848C134.201 18.6796 136.299 16.4326 138.962 14.8438C141.669 13.255 144.67 12.4606 147.964 12.4606C151.213 12.4606 154.034 13.1642 156.425 14.5714C158.817 15.9786 160.599 17.749 161.773 19.8825V13.0734H168V50.3872H161.773V43.4419C160.554 45.6208 158.727 47.4366 156.29 48.8892C153.898 50.2964 151.1 51 147.897 51C144.602 51 141.624 50.1829 138.962 48.5487C136.299 46.9145 134.201 44.6222 132.667 41.6716C131.132 38.721 130.365 35.3618 130.365 31.5941ZM161.773 31.6622C161.773 28.8478 161.209 26.3965 160.08 24.3084C158.952 22.2203 157.418 20.6315 155.478 19.5421C153.582 18.4072 151.484 17.8398 149.183 17.8398C146.881 17.8398 144.783 18.3845 142.888 19.474C140.992 20.5634 139.481 22.1522 138.352 24.2403C137.224 26.3284 136.66 28.7797 136.66 31.5941C136.66 34.4539 137.224 36.9506 138.352 39.0841C139.481 41.1722 140.992 42.7837 142.888 43.9186C144.783 45.008 146.881 45.5527 149.183 45.5527C151.484 45.5527 153.582 45.008 155.478 43.9186C157.418 42.7837 158.952 41.1722 160.08 39.0841C161.209 36.9506 161.773 34.4766 161.773 31.6622Z" fill="black"/>
<path d="M192 16.5C192 18.433 190.209 20 188 20C185.791 20 184 18.433 184 16.5C184 14.567 185.791 13 188 13C190.209 13 192 14.567 192 16.5Z" fill="black"/>
<path d="M175 13H180V50H175V13Z" fill="black"/>
</svg>
