<svg width="30" height="30" viewBox="0 0 30 30" fill="none" xmlns="http://www.w3.org/2000/svg">
<g clip-path="url(#clip0)">
<path d="M15.3654 27.0218H4.46199C3.79325 27.0218 3.25054 26.4776 3.25054 25.8071V3.94248C3.25054 3.27196 3.7933 2.7278 4.46199 2.7278H15.3654C16.0353 2.7278 16.5768 2.18485 16.5768 1.51313C16.5768 0.841407 16.0353 0.29834 15.3654 0.29834H4.46199C2.45821 0.29834 0.827576 1.93337 0.827576 3.94248V25.8071C0.827576 27.8162 2.45821 29.4512 4.46199 29.4512H15.3654C16.0353 29.4512 16.5768 28.9082 16.5768 28.2365C16.5768 27.5648 16.0353 27.0218 15.3654 27.0218Z" fill="#C4C4C4"/>
<path d="M29.639 14.0102L22.2732 6.72202C21.7983 6.25071 21.0303 6.25682 20.5602 6.73419C20.0901 7.21156 20.095 7.98045 20.5723 8.45177L25.8362 13.6604H11.7309C11.061 13.6604 10.5195 14.2033 10.5195 14.8751C10.5195 15.5468 11.061 16.0898 11.7309 16.0898H25.8362L20.5723 21.2984C20.095 21.7697 20.0914 22.5386 20.5602 23.016C20.7976 23.2565 21.1102 23.378 21.4228 23.378C21.7305 23.378 22.0382 23.2614 22.2732 23.0281L29.639 15.7399C29.8692 15.5115 30 15.2005 30 14.875C30 14.5496 29.8704 14.2398 29.639 14.0102Z" fill="#C4C4C4"/>
</g>
<defs>
<clipPath id="clip0">
<rect width="29.1724" height="29.25" fill="white" transform="translate(0.827576 0.25)"/>
</clipPath>
</defs>
</svg>
