<svg width="15" height="15" viewBox="0 0 15 15" fill="none" xmlns="http://www.w3.org/2000/svg">
<g clip-path="url(#clip0)">
<path d="M9.46677 1.01762C8.89443 0.376414 8.22232 0 7.50004 0C6.77544 0 6.10114 0.378814 5.52765 1.02388C6.30998 2.21574 6.98485 4.2303 7.495 6.11679C8.00291 4.22714 8.6775 2.20835 9.46677 1.01762V1.01762Z" fill="black"/>
<path d="M10.7766 0.9375C9.07948 2.00393 7.4953 10.3127 7.4953 10.3127C7.4953 10.3127 5.89167 2.03433 4.21399 0.9375C3.08421 1.46817 1.90475 4.13235 1.87539 7.39492C1.84402 10.8716 3.46162 14.964 7.43195 14.9997C11.4023 15.0355 13.0934 10.9729 13.1247 7.49624C13.1489 4.81231 11.8967 1.48842 10.7766 0.9375V0.9375Z" fill="black"/>
</g>
<defs>
<clipPath id="clip0">
<rect width="15" height="15" fill="white"/>
</clipPath>
</defs>
</svg>
