<svg width="18" height="18" viewBox="0 0 18 18" fill="none" xmlns="http://www.w3.org/2000/svg">
<path d="M5.16328 1.79146L4.07863 0.5L0.200012 3.75398L1.2847 5.04544L5.16328 1.79146Z" fill="#9DA5B0"/>
<path d="M17.0818 3.75813L13.2032 0.50415L12.1186 1.79561L15.9972 5.04959L17.0818 3.75813Z" fill="#9DA5B0"/>
<path d="M8.63651 2.30615C4.43717 2.30615 1.04391 5.70783 1.04391 9.90298C1.04391 14.0981 4.43717 17.4998 8.63651 17.4998C12.8359 17.4998 16.2376 14.0981 16.2376 9.90298C16.2376 5.70783 12.8359 2.30615 8.63651 2.30615ZM8.64075 15.8117C5.37834 15.8117 2.73211 13.1654 2.73211 9.90302C2.73211 6.64062 5.3783 3.99435 8.64075 3.99435C11.9032 3.99435 14.5494 6.64058 14.5494 9.90298C14.5494 13.1654 11.9074 15.8117 8.64075 15.8117Z" fill="#9DA5B0"/>
<path d="M6.10843 8.21505H9.16825L6.10843 11.7602V13.2796H11.173V11.5914H8.11312L11.173 8.04622V6.52686H6.10843V8.21505Z" fill="#9DA5B0"/>
</svg>
